<?xml version="1.0" encoding="UTF-8" standalone="no"?>
<svg
   xmlns:dc="http://purl.org/dc/elements/1.1/"
   xmlns:cc="http://creativecommons.org/ns#"
   xmlns:rdf="http://www.w3.org/1999/02/22-rdf-syntax-ns#"
   xmlns:svg="http://www.w3.org/2000/svg"
   xmlns="http://www.w3.org/2000/svg"
   xmlns:sodipodi="http://sodipodi.sourceforge.net/DTD/sodipodi-0.dtd"
   xmlns:inkscape="http://www.inkscape.org/namespaces/inkscape"
   id="svg8"
   version="1.1"
   viewBox="0 0 89.668854 89.247017"
   height="89.247017mm"
   width="89.668854mm"
   sodipodi:docname="seatingPlanExample.svg"
   inkscape:version="0.92.5 (2060ec1f9f, 2020-04-08)">
  <sodipodi:namedview
     pagecolor="#ffffff"
     bordercolor="#666666"
     borderopacity="1"
     objecttolerance="10"
     gridtolerance="10"
     guidetolerance="10"
     inkscape:pageopacity="0"
     inkscape:pageshadow="2"
     inkscape:window-width="2560"
     inkscape:window-height="1369"
     id="namedview83"
     showgrid="false"
     inkscape:zoom="3.3292663"
     inkscape:cx="160.59214"
     inkscape:cy="168.65578"
     inkscape:window-x="0"
     inkscape:window-y="1050"
     inkscape:window-maximized="1"
     inkscape:current-layer="svg8" />
  <defs
     id="defs2" />
  <metadata
     id="metadata5">
    <rdf:RDF>
      <cc:Work
         rdf:about="">
        <dc:format>image/svg+xml</dc:format>
        <dc:type
           rdf:resource="http://purl.org/dc/dcmitype/StillImage" />
        <dc:title />
      </cc:Work>
    </rdf:RDF>
  </metadata>
  <path
     inkscape:connector-curvature="0"
     style="fill:#d9d9d9;stroke:#000000;stroke-width:0.35277778;stroke-linecap:round;stroke-miterlimit:4;stroke-dasharray:none;stroke-opacity:1;fill-opacity:1"
     d="M 31.337313,0.276389 H 58.331538 V 27.270613 H 31.337313 Z"
     id="rect815-3" />
  <path
     inkscape:connector-curvature="0"
     style="fill:#d9d9d9;stroke:#000000;stroke-width:0.35277778;stroke-linecap:round;stroke-miterlimit:4;stroke-dasharray:none;stroke-opacity:1;fill-opacity:1"
     d="M 0.276389,31.126395 H 27.270613 V 58.120622 H 0.276389 Z"
     id="rect815-7" />
  <path
     inkscape:connector-curvature="0"
     style="fill:#d9d9d9;stroke:#000000;stroke-width:0.35277778;stroke-linecap:round;stroke-miterlimit:4;stroke-dasharray:none;stroke-opacity:1;fill-opacity:1"
     d="M 31.337313,31.126395 H 58.331538 V 58.120622 H 31.337313 Z"
     id="rect815-5" />
  <path
     inkscape:connector-curvature="0"
     style="fill:#d9d9d9;stroke:#000000;stroke-width:0.35277778;stroke-linecap:round;stroke-miterlimit:4;stroke-dasharray:none;stroke-opacity:1;fill-opacity:1"
     d="M 62.398238,31.126395 H 89.392461 V 58.120622 H 62.398238 Z"
     id="rect815-35" />
  <path
     inkscape:connector-curvature="0"
     style="fill:#d9d9d9;stroke:#000000;stroke-width:0.35277778;stroke-linecap:round;stroke-miterlimit:4;stroke-dasharray:none;stroke-opacity:1;fill-opacity:1"
     d="m 0.276389,61.976402 h 26.994224 v 26.99422 H 0.276389 Z"
     id="rect815-62" />
  <path
     inkscape:connector-curvature="0"
     style="fill:#d9d9d9;stroke:#000000;stroke-width:0.35277778;stroke-linecap:round;stroke-miterlimit:4;stroke-dasharray:none;stroke-opacity:1;fill-opacity:1"
     d="m 31.337313,61.976402 h 26.994225 v 26.99422 H 31.337313 Z"
     id="rect815-9" />
  <path
     inkscape:connector-curvature="0"
     style="fill:#d9d9d9;stroke:#000000;stroke-width:0.35277778;stroke-linecap:round;stroke-miterlimit:4;stroke-dasharray:none;stroke-opacity:1;fill-opacity:1"
     d="m 62.398238,61.976402 h 26.994223 v 26.99422 H 62.398238 Z"
     id="rect815-1" />
  <text
     xml:space="preserve"
     style="font-style:normal;font-variant:normal;font-weight:normal;font-stretch:normal;font-size:3.52777767px;line-height:1.25;font-family:'Noto Sans CJK JP';-inkscape-font-specification:'Noto Sans CJK JP';letter-spacing:0px;word-spacing:0px;stroke-width:0.26458332"
     x="26.291605"
     y="-29.27445"
     id="text1149"><tspan
       id="tspan1147"
       x="26.291605"
       y="-25.729034"
       style="font-style:normal;font-variant:normal;font-weight:normal;font-stretch:normal;font-family:'Noto Sans CJK JP';-inkscape-font-specification:'Noto Sans CJK JP';stroke-width:0.26458332" /></text>
  <g
     aria-label="Tarou Yamada"
     style="font-size:3.52777767px;line-height:1.25;font-family:BokutachinoGothic;-inkscape-font-specification:BokutachinoGothic;letter-spacing:0px;word-spacing:0px;stroke-width:0.26458332"
     id="text1153"
     transform="translate(-17.006059,-56.064958)">
    <path
       inkscape:connector-curvature="0"
       d="m 55.266132,99.568748 h 0.3937 v -2.772833 h 0.9398 v -0.334433 h -2.2733 v 0.334433 h 0.9398 z"
       style="font-style:normal;font-variant:normal;font-weight:normal;font-stretch:normal;font-size:4.23333311px;font-family:'Noto Sans CJK JP';-inkscape-font-specification:'Noto Sans CJK JP';stroke-width:0.26458332"
       id="path1304" />
    <path
       inkscape:connector-curvature="0"
       d="m 57.306589,99.623782 c 0.283634,0 0.541867,-0.148167 0.762,-0.3302 h 0.0127 l 0.03387,0.275166 h 0.3175 v -1.413933 c 0,-0.567266 -0.237067,-0.944033 -0.795867,-0.944033 -0.3683,0 -0.694266,0.1651 -0.905933,0.300567 l 0.1524,0.2667 c 0.182033,-0.122767 0.423333,-0.245534 0.690033,-0.245534 0.376767,0 0.474133,0.283634 0.474133,0.579967 -0.977899,0.110067 -1.413933,0.359833 -1.413933,0.859367 0,0.414866 0.287867,0.651933 0.6731,0.651933 z m 0.110067,-0.309034 c -0.2286,0 -0.4064,-0.105833 -0.4064,-0.368299 0,-0.296334 0.262467,-0.486834 1.037166,-0.579967 v 0.643467 c -0.224366,0.198966 -0.406399,0.304799 -0.630766,0.304799 z"
       style="font-style:normal;font-variant:normal;font-weight:normal;font-stretch:normal;font-size:4.23333311px;font-family:'Noto Sans CJK JP';-inkscape-font-specification:'Noto Sans CJK JP';stroke-width:0.26458332"
       id="path1306" />
    <path
       inkscape:connector-curvature="0"
       d="m 59.165019,99.568748 h 0.385233 v -1.477433 c 0.1524,-0.3937 0.389467,-0.529166 0.579967,-0.529166 0.09313,0 0.148167,0.0085 0.224367,0.0381 l 0.07197,-0.338667 c -0.07197,-0.0381 -0.143933,-0.0508 -0.245533,-0.0508 -0.258233,0 -0.491067,0.186267 -0.651933,0.478367 h -0.0127 l -0.03387,-0.4191 h -0.3175 z"
       style="font-style:normal;font-variant:normal;font-weight:normal;font-stretch:normal;font-size:4.23333311px;font-family:'Noto Sans CJK JP';-inkscape-font-specification:'Noto Sans CJK JP';stroke-width:0.26458332"
       id="path1308" />
    <path
       inkscape:connector-curvature="0"
       d="m 61.654206,99.623782 c 0.563033,0 1.0668,-0.440267 1.0668,-1.202267 0,-0.766233 -0.503767,-1.210733 -1.0668,-1.210733 -0.563033,0 -1.0668,0.4445 -1.0668,1.210733 0,0.762 0.503767,1.202267 1.0668,1.202267 z m 0,-0.321734 c -0.397933,0 -0.664633,-0.351366 -0.664633,-0.880533 0,-0.529166 0.2667,-0.889 0.664633,-0.889 0.397933,0 0.668867,0.359834 0.668867,0.889 0,0.529167 -0.270934,0.880533 -0.668867,0.880533 z"
       style="font-style:normal;font-variant:normal;font-weight:normal;font-stretch:normal;font-size:4.23333311px;font-family:'Noto Sans CJK JP';-inkscape-font-specification:'Noto Sans CJK JP';stroke-width:0.26458332"
       id="path1310" />
    <path
       inkscape:connector-curvature="0"
       d="m 63.995235,99.623782 c 0.3175,0 0.5461,-0.1651 0.762,-0.414867 h 0.0127 l 0.02963,0.359833 h 0.321733 v -2.298699 h -0.385233 v 1.629833 c -0.220134,0.275166 -0.385234,0.389466 -0.6223,0.389466 -0.3048,0 -0.4318,-0.182033 -0.4318,-0.609599 v -1.4097 h -0.385234 v 1.456266 c 0,0.5842 0.2159,0.897467 0.6985,0.897467 z"
       style="font-style:normal;font-variant:normal;font-weight:normal;font-stretch:normal;font-size:4.23333311px;font-family:'Noto Sans CJK JP';-inkscape-font-specification:'Noto Sans CJK JP';stroke-width:0.26458332"
       id="path1312" />
    <path
       inkscape:connector-curvature="0"
       d="m 55.122199,104.86041 h 0.3937 v -1.2065 l 0.931333,-1.90076 h -0.4064 l -0.402167,0.88053 c -0.09313,0.2286 -0.198966,0.4445 -0.309033,0.67733 h -0.01693 c -0.110067,-0.23283 -0.2032,-0.44873 -0.3048,-0.67733 l -0.397933,-0.88053 h -0.4191 l 0.931333,1.90076 z"
       style="font-style:normal;font-variant:normal;font-weight:normal;font-stretch:normal;font-size:4.23333311px;font-family:'Noto Sans CJK JP';-inkscape-font-specification:'Noto Sans CJK JP';stroke-width:0.26458332"
       id="path1314" />
    <path
       inkscape:connector-curvature="0"
       d="m 57.044121,104.91545 c 0.283634,0 0.541867,-0.14817 0.762,-0.3302 h 0.0127 l 0.03387,0.27516 h 0.3175 v -1.41393 c 0,-0.56727 -0.237067,-0.94403 -0.795867,-0.94403 -0.3683,0 -0.694266,0.1651 -0.905933,0.30056 l 0.1524,0.2667 c 0.182033,-0.12276 0.423333,-0.24553 0.690033,-0.24553 0.376767,0 0.474134,0.28363 0.474134,0.57997 -0.9779,0.11006 -1.413934,0.35983 -1.413934,0.85936 0,0.41487 0.287867,0.65194 0.6731,0.65194 z m 0.110067,-0.30904 c -0.2286,0 -0.4064,-0.10583 -0.4064,-0.3683 0,-0.29633 0.262467,-0.48683 1.037167,-0.57996 v 0.64346 c -0.224367,0.19897 -0.4064,0.3048 -0.630767,0.3048 z"
       style="font-style:normal;font-variant:normal;font-weight:normal;font-stretch:normal;font-size:4.23333311px;font-family:'Noto Sans CJK JP';-inkscape-font-specification:'Noto Sans CJK JP';stroke-width:0.26458332"
       id="path1316" />
    <path
       inkscape:connector-curvature="0"
       d="m 58.902551,104.86041 h 0.385233 v -1.66793 c 0.211667,-0.23707 0.4064,-0.35137 0.579967,-0.35137 0.2921,0 0.427567,0.18204 0.427567,0.61384 v 1.40546 h 0.385233 v -1.66793 c 0.2159,-0.23707 0.402167,-0.35137 0.579967,-0.35137 0.2921,0 0.427566,0.18204 0.427566,0.61384 v 1.40546 h 0.385234 v -1.45626 c 0,-0.58844 -0.224367,-0.9017 -0.6985,-0.9017 -0.2794,0 -0.5207,0.18203 -0.757767,0.44026 -0.09313,-0.27093 -0.283633,-0.44026 -0.635,-0.44026 -0.275167,0 -0.516467,0.17356 -0.715433,0.3937 h -0.0127 l -0.03387,-0.33444 h -0.3175 z"
       style="font-style:normal;font-variant:normal;font-weight:normal;font-stretch:normal;font-size:4.23333311px;font-family:'Noto Sans CJK JP';-inkscape-font-specification:'Noto Sans CJK JP';stroke-width:0.26458332"
       id="path1318" />
    <path
       inkscape:connector-curvature="0"
       d="m 63.351779,104.91545 c 0.283633,0 0.541866,-0.14817 0.762,-0.3302 h 0.0127 l 0.03387,0.27516 h 0.3175 v -1.41393 c 0,-0.56727 -0.237066,-0.94403 -0.795866,-0.94403 -0.3683,0 -0.694267,0.1651 -0.905933,0.30056 l 0.152399,0.2667 c 0.182034,-0.12276 0.423334,-0.24553 0.690034,-0.24553 0.376766,0 0.474133,0.28363 0.474133,0.57997 -0.9779,0.11006 -1.413933,0.35983 -1.413933,0.85936 0,0.41487 0.287866,0.65194 0.6731,0.65194 z m 0.110066,-0.30904 c -0.2286,0 -0.4064,-0.10583 -0.4064,-0.3683 0,-0.29633 0.262467,-0.48683 1.037167,-0.57996 v 0.64346 c -0.224367,0.19897 -0.4064,0.3048 -0.630767,0.3048 z"
       style="font-style:normal;font-variant:normal;font-weight:normal;font-stretch:normal;font-size:4.23333311px;font-family:'Noto Sans CJK JP';-inkscape-font-specification:'Noto Sans CJK JP';stroke-width:0.26458332"
       id="path1320" />
    <path
       inkscape:connector-curvature="0"
       d="m 65.993375,104.91545 c 0.275167,0 0.516467,-0.14817 0.6985,-0.32597 h 0.0127 l 0.03387,0.27093 h 0.313266 v -3.36973 h -0.381 v 0.88477 l 0.01693,0.39793 c -0.2032,-0.16933 -0.376767,-0.27093 -0.6477,-0.27093 -0.524934,0 -0.994834,0.46566 -0.994834,1.21073 0,0.76623 0.372534,1.20227 0.948267,1.20227 z m 0.08467,-0.32174 c -0.4064,0 -0.635,-0.3302 -0.635,-0.88476 0,-0.52494 0.2921,-0.88054 0.664633,-0.88054 0.1905,0 0.364067,0.0677 0.563033,0.2413 v 1.2065 c -0.194733,0.21167 -0.381,0.3175 -0.592666,0.3175 z"
       style="font-style:normal;font-variant:normal;font-weight:normal;font-stretch:normal;font-size:4.23333311px;font-family:'Noto Sans CJK JP';-inkscape-font-specification:'Noto Sans CJK JP';stroke-width:0.26458332"
       id="path1322" />
    <path
       inkscape:connector-curvature="0"
       d="m 68.364037,104.91545 c 0.283634,0 0.541867,-0.14817 0.762,-0.3302 h 0.0127 l 0.03387,0.27516 h 0.3175 v -1.41393 c 0,-0.56727 -0.237067,-0.94403 -0.795867,-0.94403 -0.3683,0 -0.694266,0.1651 -0.905933,0.30056 l 0.1524,0.2667 c 0.182033,-0.12276 0.423333,-0.24553 0.690033,-0.24553 0.376767,0 0.474134,0.28363 0.474134,0.57997 -0.9779,0.11006 -1.413934,0.35983 -1.413934,0.85936 0,0.41487 0.287867,0.65194 0.6731,0.65194 z m 0.110067,-0.30904 c -0.2286,0 -0.4064,-0.10583 -0.4064,-0.3683 0,-0.29633 0.262467,-0.48683 1.037167,-0.57996 v 0.64346 c -0.224367,0.19897 -0.4064,0.3048 -0.630767,0.3048 z"
       style="font-style:normal;font-variant:normal;font-weight:normal;font-stretch:normal;font-size:4.23333311px;font-family:'Noto Sans CJK JP';-inkscape-font-specification:'Noto Sans CJK JP';stroke-width:0.26458332"
       id="path1324" />
  </g>
  <g
     aria-label="Hanako Yamada"
     style="font-size:3.52777767px;line-height:1.25;font-family:BokutachinoGothic;-inkscape-font-specification:BokutachinoGothic;letter-spacing:0px;word-spacing:0px;stroke-width:0.26458332"
     id="text1153-4"
     transform="translate(-17.006059,-56.064958)">
    <path
       inkscape:connector-curvature="0"
       d="m 85.679353,130.54999 h 0.3937 v -1.46474 h 1.4478 v 1.46474 h 0.389466 v -3.10727 h -0.389466 v 1.30387 h -1.4478 v -1.30387 h -0.3937 z"
       style="font-style:normal;font-variant:normal;font-weight:normal;font-stretch:normal;font-size:4.23333311px;font-family:'Noto Sans CJK JP';-inkscape-font-specification:'Noto Sans CJK JP';stroke-width:0.26458332"
       id="path1279" />
    <path
       inkscape:connector-curvature="0"
       d="m 89.256514,130.60502 c 0.283633,0 0.541867,-0.14817 0.762,-0.3302 h 0.0127 l 0.03387,0.27517 h 0.3175 v -1.41394 c 0,-0.56726 -0.237067,-0.94403 -0.795867,-0.94403 -0.3683,0 -0.694267,0.1651 -0.905933,0.30057 l 0.1524,0.2667 c 0.182033,-0.12277 0.423333,-0.24554 0.690033,-0.24554 0.376767,0 0.474133,0.28364 0.474133,0.57997 -0.9779,0.11007 -1.413933,0.35983 -1.413933,0.85937 0,0.41486 0.287867,0.65193 0.6731,0.65193 z m 0.110067,-0.30903 c -0.2286,0 -0.4064,-0.10584 -0.4064,-0.3683 0,-0.29634 0.262466,-0.48684 1.037166,-0.57997 v 0.64347 c -0.224366,0.19896 -0.4064,0.3048 -0.630766,0.3048 z"
       style="font-style:normal;font-variant:normal;font-weight:normal;font-stretch:normal;font-size:4.23333311px;font-family:'Noto Sans CJK JP';-inkscape-font-specification:'Noto Sans CJK JP';stroke-width:0.26458332"
       id="path1281" />
    <path
       inkscape:connector-curvature="0"
       d="m 91.114944,130.54999 h 0.385233 v -1.66794 c 0.232833,-0.23283 0.3937,-0.35136 0.630767,-0.35136 0.3048,0 0.436033,0.18203 0.436033,0.61383 v 1.40547 h 0.385233 v -1.45627 c 0,-0.58843 -0.220133,-0.9017 -0.702733,-0.9017 -0.313267,0 -0.550333,0.17357 -0.770466,0.38947 h -0.0127 l -0.03387,-0.3302 h -0.3175 z"
       style="font-style:normal;font-variant:normal;font-weight:normal;font-stretch:normal;font-size:4.23333311px;font-family:'Noto Sans CJK JP';-inkscape-font-specification:'Noto Sans CJK JP';stroke-width:0.26458332"
       id="path1283" />
    <path
       inkscape:connector-curvature="0"
       d="m 94.23067,130.60502 c 0.283633,0 0.541866,-0.14817 0.762,-0.3302 h 0.0127 l 0.03387,0.27517 h 0.3175 v -1.41394 c 0,-0.56726 -0.237066,-0.94403 -0.795866,-0.94403 -0.3683,0 -0.694267,0.1651 -0.905934,0.30057 l 0.1524,0.2667 c 0.182034,-0.12277 0.423334,-0.24554 0.690034,-0.24554 0.376766,0 0.474133,0.28364 0.474133,0.57997 -0.9779,0.11007 -1.413933,0.35983 -1.413933,0.85937 0,0.41486 0.287866,0.65193 0.6731,0.65193 z m 0.110066,-0.30903 c -0.2286,0 -0.4064,-0.10584 -0.4064,-0.3683 0,-0.29634 0.262467,-0.48684 1.037167,-0.57997 v 0.64347 c -0.224367,0.19896 -0.4064,0.3048 -0.630767,0.3048 z"
       style="font-style:normal;font-variant:normal;font-weight:normal;font-stretch:normal;font-size:4.23333311px;font-family:'Noto Sans CJK JP';-inkscape-font-specification:'Noto Sans CJK JP';stroke-width:0.26458332"
       id="path1285" />
    <path
       inkscape:connector-curvature="0"
       d="m 96.089099,130.54999 h 0.381 v -0.60537 l 0.4318,-0.50377 0.6731,1.10914 h 0.4191 l -0.867833,-1.3716 0.766233,-0.9271 h -0.4318 l -0.9779,1.21496 h -0.0127 v -2.286 h -0.381 z"
       style="font-style:normal;font-variant:normal;font-weight:normal;font-stretch:normal;font-size:4.23333311px;font-family:'Noto Sans CJK JP';-inkscape-font-specification:'Noto Sans CJK JP';stroke-width:0.26458332"
       id="path1287" />
    <path
       inkscape:connector-curvature="0"
       d="m 99.234455,130.60502 c 0.563034,0 1.066805,-0.44027 1.066805,-1.20227 0,-0.76623 -0.503771,-1.21073 -1.066805,-1.21073 -0.563033,0 -1.066799,0.4445 -1.066799,1.21073 0,0.762 0.503766,1.20227 1.066799,1.20227 z m 0,-0.32173 c -0.397933,0 -0.664633,-0.35137 -0.664633,-0.88054 0,-0.52916 0.2667,-0.889 0.664633,-0.889 0.397934,0 0.668867,0.35984 0.668867,0.889 0,0.52917 -0.270933,0.88054 -0.668867,0.88054 z"
       style="font-style:normal;font-variant:normal;font-weight:normal;font-stretch:normal;font-size:4.23333311px;font-family:'Noto Sans CJK JP';-inkscape-font-specification:'Noto Sans CJK JP';stroke-width:0.26458332"
       id="path1289" />
    <path
       inkscape:connector-curvature="0"
       d="m 86.18312,135.84165 h 0.3937 v -1.2065 l 0.931333,-1.90076 h -0.4064 l -0.402167,0.88053 c -0.09313,0.2286 -0.198966,0.4445 -0.309033,0.67733 h -0.01693 c -0.110067,-0.23283 -0.2032,-0.44873 -0.3048,-0.67733 l -0.397934,-0.88053 h -0.4191 l 0.931334,1.90076 z"
       style="font-style:normal;font-variant:normal;font-weight:normal;font-stretch:normal;font-size:4.23333311px;font-family:'Noto Sans CJK JP';-inkscape-font-specification:'Noto Sans CJK JP';stroke-width:0.26458332"
       id="path1291" />
    <path
       inkscape:connector-curvature="0"
       d="m 88.105042,135.89669 c 0.283633,0 0.541867,-0.14817 0.762,-0.3302 h 0.0127 l 0.03387,0.27516 h 0.3175 v -1.41393 c 0,-0.56727 -0.237067,-0.94403 -0.795867,-0.94403 -0.3683,0 -0.694267,0.1651 -0.905933,0.30056 l 0.1524,0.2667 c 0.182033,-0.12276 0.423333,-0.24553 0.690033,-0.24553 0.376767,0 0.474133,0.28363 0.474133,0.57997 -0.9779,0.11006 -1.413933,0.35983 -1.413933,0.85936 0,0.41487 0.287867,0.65194 0.6731,0.65194 z m 0.110067,-0.30904 c -0.2286,0 -0.4064,-0.10583 -0.4064,-0.3683 0,-0.29633 0.262466,-0.48683 1.037166,-0.57996 v 0.64346 c -0.224366,0.19897 -0.4064,0.3048 -0.630766,0.3048 z"
       style="font-style:normal;font-variant:normal;font-weight:normal;font-stretch:normal;font-size:4.23333311px;font-family:'Noto Sans CJK JP';-inkscape-font-specification:'Noto Sans CJK JP';stroke-width:0.26458332"
       id="path1293" />
    <path
       inkscape:connector-curvature="0"
       d="m 89.963472,135.84165 h 0.385233 v -1.66793 c 0.211667,-0.23707 0.4064,-0.35137 0.579967,-0.35137 0.2921,0 0.427566,0.18204 0.427566,0.61384 v 1.40546 h 0.385234 v -1.66793 c 0.2159,-0.23707 0.402166,-0.35137 0.579966,-0.35137 0.2921,0 0.427567,0.18204 0.427567,0.61384 v 1.40546 h 0.385233 v -1.45626 c 0,-0.58844 -0.224366,-0.9017 -0.6985,-0.9017 -0.2794,0 -0.5207,0.18203 -0.757766,0.44026 -0.09313,-0.27093 -0.283634,-0.44026 -0.635,-0.44026 -0.275167,0 -0.516467,0.17356 -0.715434,0.3937 h -0.0127 l -0.03387,-0.33444 h -0.3175 z"
       style="font-style:normal;font-variant:normal;font-weight:normal;font-stretch:normal;font-size:4.23333311px;font-family:'Noto Sans CJK JP';-inkscape-font-specification:'Noto Sans CJK JP';stroke-width:0.26458332"
       id="path1295" />
    <path
       inkscape:connector-curvature="0"
       d="m 94.4127,135.89669 c 0.283633,0 0.541866,-0.14817 0.761999,-0.3302 h 0.0127 l 0.03387,0.27516 h 0.3175 v -1.41393 c 0,-0.56727 -0.237067,-0.94403 -0.795866,-0.94403 -0.3683,0 -0.694267,0.1651 -0.905934,0.30056 l 0.1524,0.2667 c 0.182034,-0.12276 0.423334,-0.24553 0.690034,-0.24553 0.376766,0 0.474133,0.28363 0.474133,0.57997 -0.9779,0.11006 -1.413933,0.35983 -1.413933,0.85936 0,0.41487 0.287866,0.65194 0.6731,0.65194 z m 0.110066,-0.30904 c -0.2286,0 -0.4064,-0.10583 -0.4064,-0.3683 0,-0.29633 0.262467,-0.48683 1.037167,-0.57996 v 0.64346 c -0.224367,0.19897 -0.4064,0.3048 -0.630767,0.3048 z"
       style="font-style:normal;font-variant:normal;font-weight:normal;font-stretch:normal;font-size:4.23333311px;font-family:'Noto Sans CJK JP';-inkscape-font-specification:'Noto Sans CJK JP';stroke-width:0.26458332"
       id="path1297" />
    <path
       inkscape:connector-curvature="0"
       d="m 97.054296,135.89669 c 0.275166,0 0.516466,-0.14817 0.6985,-0.32597 h 0.0127 l 0.03387,0.27093 h 0.313267 v -3.36973 h -0.381 v 0.88477 l 0.01693,0.39793 c -0.2032,-0.16933 -0.376766,-0.27093 -0.6477,-0.27093 -0.524933,0 -0.994833,0.46566 -0.994833,1.21073 0,0.76623 0.372533,1.20227 0.948266,1.20227 z m 0.08467,-0.32174 c -0.4064,0 -0.635,-0.3302 -0.635,-0.88476 0,-0.52494 0.2921,-0.88054 0.664634,-0.88054 0.1905,0 0.364066,0.0677 0.563033,0.2413 v 1.2065 c -0.194733,0.21167 -0.381,0.3175 -0.592667,0.3175 z"
       style="font-style:normal;font-variant:normal;font-weight:normal;font-stretch:normal;font-size:4.23333311px;font-family:'Noto Sans CJK JP';-inkscape-font-specification:'Noto Sans CJK JP';stroke-width:0.26458332"
       id="path1299" />
    <path
       inkscape:connector-curvature="0"
       d="m 99.424958,135.89669 c 0.283633,0 0.541867,-0.14817 0.762002,-0.3302 h 0.0127 l 0.0339,0.27516 h 0.3175 v -1.41393 c 0,-0.56727 -0.23706,-0.94403 -0.795862,-0.94403 -0.3683,0 -0.694267,0.1651 -0.905933,0.30056 l 0.1524,0.2667 c 0.182033,-0.12276 0.423333,-0.24553 0.690033,-0.24553 0.376762,0 0.474132,0.28363 0.474132,0.57997 -0.977899,0.11006 -1.413932,0.35983 -1.413932,0.85936 0,0.41487 0.287867,0.65194 0.6731,0.65194 z m 0.110067,-0.30904 c -0.2286,0 -0.4064,-0.10583 -0.4064,-0.3683 0,-0.29633 0.262466,-0.48683 1.037165,-0.57996 v 0.64346 c -0.224365,0.19897 -0.406399,0.3048 -0.630765,0.3048 z"
       style="font-style:normal;font-variant:normal;font-weight:normal;font-stretch:normal;font-size:4.23333311px;font-family:'Noto Sans CJK JP';-inkscape-font-specification:'Noto Sans CJK JP';stroke-width:0.26458332"
       id="path1301" />
  </g>
  <g
     aria-label="Mariko Suzuki"
     style="font-size:3.52777767px;line-height:1.25;font-family:BokutachinoGothic;-inkscape-font-specification:BokutachinoGothic;letter-spacing:0px;word-spacing:0px;stroke-width:0.26458332"
     id="text1153-5"
     transform="translate(-17.006059,-56.064958)">
    <path
       inkscape:connector-curvature="0"
       d="m 24.486724,99.699982 h 0.3556 v -1.718734 c 0,-0.2667 -0.02963,-0.643466 -0.04657,-0.9144 h 0.01693 l 0.245533,0.706967 0.588433,1.6129 h 0.262467 l 0.588433,-1.6129 0.245534,-0.706967 h 0.01693 c -0.02117,0.270934 -0.0508,0.6477 -0.0508,0.9144 v 1.718734 h 0.3683 v -3.107267 h -0.474133 l -0.592667,1.6637 c -0.07197,0.2159 -0.1397,0.4318 -0.211667,0.6477 h -0.02117 c -0.0762,-0.2159 -0.148167,-0.4318 -0.220134,-0.6477 l -0.5969,-1.6637 H 24.48671 Z"
       style="font-style:normal;font-variant:normal;font-weight:normal;font-stretch:normal;font-size:4.23333311px;font-family:'Noto Sans CJK JP';-inkscape-font-specification:'Noto Sans CJK JP';stroke-width:0.26458332"
       id="path1254" />
    <path
       inkscape:connector-curvature="0"
       d="m 28.419483,99.755015 c 0.283634,0 0.541867,-0.148167 0.762,-0.3302 h 0.0127 l 0.03387,0.275167 h 0.3175 v -1.413934 c 0,-0.567266 -0.237067,-0.944033 -0.795867,-0.944033 -0.3683,0 -0.694266,0.1651 -0.905933,0.300567 l 0.1524,0.2667 c 0.182033,-0.122767 0.423333,-0.245534 0.690033,-0.245534 0.376767,0 0.474134,0.283634 0.474134,0.579967 -0.9779,0.110067 -1.413933,0.359833 -1.413933,0.859367 0,0.414866 0.287866,0.651933 0.673099,0.651933 z m 0.110067,-0.309033 c -0.2286,0 -0.4064,-0.105834 -0.4064,-0.3683 0,-0.296334 0.262467,-0.486834 1.037167,-0.579967 v 0.643467 c -0.224367,0.198966 -0.4064,0.3048 -0.630767,0.3048 z"
       style="font-style:normal;font-variant:normal;font-weight:normal;font-stretch:normal;font-size:4.23333311px;font-family:'Noto Sans CJK JP';-inkscape-font-specification:'Noto Sans CJK JP';stroke-width:0.26458332"
       id="path1256" />
    <path
       inkscape:connector-curvature="0"
       d="m 30.277913,99.699982 h 0.385234 v -1.477434 c 0.1524,-0.3937 0.389466,-0.529166 0.579966,-0.529166 0.09313,0 0.148167,0.0085 0.224367,0.0381 l 0.07197,-0.338667 c -0.07197,-0.0381 -0.143934,-0.0508 -0.245534,-0.0508 -0.258233,0 -0.491066,0.186267 -0.651933,0.478367 h -0.0127 l -0.03387,-0.4191 h -0.3175 z"
       style="font-style:normal;font-variant:normal;font-weight:normal;font-stretch:normal;font-size:4.23333311px;font-family:'Noto Sans CJK JP';-inkscape-font-specification:'Noto Sans CJK JP';stroke-width:0.26458332"
       id="path1258" />
    <path
       inkscape:connector-curvature="0"
       d="m 31.920441,99.699982 h 0.385233 v -2.2987 h -0.385233 z m 0.194733,-2.772833 c 0.1524,0 0.258233,-0.1016 0.258233,-0.258234 0,-0.148166 -0.105833,-0.249766 -0.258233,-0.249766 -0.1524,0 -0.258233,0.1016 -0.258233,0.249766 0,0.156634 0.105833,0.258234 0.258233,0.258234 z"
       style="font-style:normal;font-variant:normal;font-weight:normal;font-stretch:normal;font-size:4.23333311px;font-family:'Noto Sans CJK JP';-inkscape-font-specification:'Noto Sans CJK JP';stroke-width:0.26458332"
       id="path1260" />
    <path
       inkscape:connector-curvature="0"
       d="m 33.084606,99.699982 h 0.381 v -0.605367 l 0.4318,-0.503767 0.673099,1.109134 h 0.4191 l -0.867833,-1.3716 0.766233,-0.9271 h -0.431799 l -0.9779,1.214966 h -0.0127 v -2.285999 h -0.381 z"
       style="font-style:normal;font-variant:normal;font-weight:normal;font-stretch:normal;font-size:4.23333311px;font-family:'Noto Sans CJK JP';-inkscape-font-specification:'Noto Sans CJK JP';stroke-width:0.26458332"
       id="path1262" />
    <path
       inkscape:connector-curvature="0"
       d="m 36.229962,99.755015 c 0.563033,0 1.0668,-0.440267 1.0668,-1.202267 0,-0.766233 -0.503767,-1.210733 -1.0668,-1.210733 -0.563034,0 -1.0668,0.4445 -1.0668,1.210733 0,0.762 0.503766,1.202267 1.0668,1.202267 z m 0,-0.321733 c -0.397934,0 -0.664634,-0.351367 -0.664634,-0.880534 0,-0.529166 0.2667,-0.889 0.664634,-0.889 0.397933,0 0.668866,0.359834 0.668866,0.889 0,0.529167 -0.270933,0.880534 -0.668866,0.880534 z"
       style="font-style:normal;font-variant:normal;font-weight:normal;font-stretch:normal;font-size:4.23333311px;font-family:'Noto Sans CJK JP';-inkscape-font-specification:'Noto Sans CJK JP';stroke-width:0.26458332"
       id="path1264" />
    <path
       inkscape:connector-curvature="0"
       d="m 25.350324,105.04668 c 0.6477,0 1.0541,-0.38947 1.0541,-0.88053 0,-0.46144 -0.2794,-0.6731 -0.639233,-0.82974 l -0.4445,-0.1905 c -0.2413,-0.1016 -0.512234,-0.2159 -0.512234,-0.51646 0,-0.2794 0.2286,-0.4572 0.579967,-0.4572 0.287867,0 0.516467,0.1143 0.706967,0.2921 l 0.207433,-0.24977 c -0.220133,-0.2286 -0.5461,-0.38523 -0.9144,-0.38523 -0.563033,0 -0.9779,0.34713 -0.9779,0.8255 0,0.45296 0.3429,0.6731 0.630767,0.79586 l 0.448733,0.19474 c 0.2921,0.13123 0.516467,0.23283 0.516467,0.55033 0,0.3048 -0.245534,0.508 -0.651934,0.508 -0.321733,0 -0.635,-0.1524 -0.855133,-0.38523 l -0.237067,0.2667 c 0.270934,0.28363 0.6477,0.46143 1.087967,0.46143 z"
       style="font-style:normal;font-variant:normal;font-weight:normal;font-stretch:normal;font-size:4.23333311px;font-family:'Noto Sans CJK JP';-inkscape-font-specification:'Noto Sans CJK JP';stroke-width:0.26458332"
       id="path1266" />
    <path
       inkscape:connector-curvature="0"
       d="m 27.649016,105.04668 c 0.3175,0 0.5461,-0.1651 0.762,-0.41487 h 0.0127 l 0.02963,0.35984 h 0.321733 v -2.2987 H 28.38985 v 1.62983 c -0.220134,0.27517 -0.385234,0.38947 -0.6223,0.38947 -0.3048,0 -0.4318,-0.18204 -0.4318,-0.6096 v -1.4097 h -0.385234 v 1.45626 c 0,0.5842 0.2159,0.89747 0.6985,0.89747 z"
       style="font-style:normal;font-variant:normal;font-weight:normal;font-stretch:normal;font-size:4.23333311px;font-family:'Noto Sans CJK JP';-inkscape-font-specification:'Noto Sans CJK JP';stroke-width:0.26458332"
       id="path1268" />
    <path
       inkscape:connector-curvature="0"
       d="m 29.308476,104.99165 h 1.7399 v -0.31327 H 29.79531 l 1.210733,-1.778 v -0.20743 H 29.43971 v 0.31326 h 1.0795 l -1.210734,1.778 z"
       style="font-style:normal;font-variant:normal;font-weight:normal;font-stretch:normal;font-size:4.23333311px;font-family:'Noto Sans CJK JP';-inkscape-font-specification:'Noto Sans CJK JP';stroke-width:0.26458332"
       id="path1270" />
    <path
       inkscape:connector-curvature="0"
       d="m 32.178665,105.04668 c 0.3175,0 0.5461,-0.1651 0.762,-0.41487 h 0.0127 l 0.02963,0.35984 h 0.321734 v -2.2987 h -0.385234 v 1.62983 c -0.220133,0.27517 -0.385233,0.38947 -0.6223,0.38947 -0.3048,0 -0.4318,-0.18204 -0.4318,-0.6096 v -1.4097 h -0.385233 v 1.45626 c 0,0.5842 0.2159,0.89747 0.6985,0.89747 z"
       style="font-style:normal;font-variant:normal;font-weight:normal;font-stretch:normal;font-size:4.23333311px;font-family:'Noto Sans CJK JP';-inkscape-font-specification:'Noto Sans CJK JP';stroke-width:0.26458332"
       id="path1272" />
    <path
       inkscape:connector-curvature="0"
       d="m 34.079425,104.99165 h 0.381 v -0.60537 l 0.4318,-0.50377 0.6731,1.10914 h 0.4191 l -0.867833,-1.3716 0.766233,-0.9271 h -0.4318 l -0.9779,1.21496 h -0.0127 v -2.286 h -0.381 z"
       style="font-style:normal;font-variant:normal;font-weight:normal;font-stretch:normal;font-size:4.23333311px;font-family:'Noto Sans CJK JP';-inkscape-font-specification:'Noto Sans CJK JP';stroke-width:0.26458332"
       id="path1274" />
    <path
       inkscape:connector-curvature="0"
       d="m 36.416217,104.99165 h 0.385234 v -2.2987 h -0.385234 z m 0.194734,-2.77284 c 0.1524,0 0.258233,-0.1016 0.258233,-0.25823 0,-0.14817 -0.105833,-0.24977 -0.258233,-0.24977 -0.1524,0 -0.258234,0.1016 -0.258234,0.24977 0,0.15663 0.105834,0.25823 0.258234,0.25823 z"
       style="font-style:normal;font-variant:normal;font-weight:normal;font-stretch:normal;font-size:4.23333311px;font-family:'Noto Sans CJK JP';-inkscape-font-specification:'Noto Sans CJK JP';stroke-width:0.26458332"
       id="path1276" />
  </g>
  <g
     aria-label="Yu Tanaka"
     style="font-size:3.52777767px;line-height:1.25;font-family:BokutachinoGothic;-inkscape-font-specification:BokutachinoGothic;letter-spacing:0px;word-spacing:0px;stroke-width:0.26458332"
     id="text1153-3"
     transform="translate(-17.006059,-56.064958)">
    <path
       inkscape:connector-curvature="0"
       d="m 55.824939,130.41876 h 0.3937 v -1.2065 l 0.931333,-1.90076 h -0.4064 l -0.402167,0.88053 c -0.09313,0.2286 -0.198966,0.4445 -0.309033,0.67733 h -0.01693 c -0.110067,-0.23283 -0.2032,-0.44873 -0.3048,-0.67733 l -0.397934,-0.88053 h -0.4191 l 0.931334,1.90076 z"
       style="font-style:normal;font-variant:normal;font-weight:normal;font-stretch:normal;font-size:4.23333311px;font-family:'Noto Sans CJK JP';-inkscape-font-specification:'Noto Sans CJK JP';stroke-width:0.26458332"
       id="path1237" />
    <path
       inkscape:connector-curvature="0"
       d="m 58.043197,130.4738 c 0.3175,0 0.5461,-0.1651 0.762,-0.41487 h 0.0127 l 0.02963,0.35983 h 0.321734 v -2.2987 H 58.78403 v 1.62984 c -0.220133,0.27516 -0.385233,0.38946 -0.6223,0.38946 -0.3048,0 -0.4318,-0.18203 -0.4318,-0.6096 v -1.4097 h -0.385233 v 1.45627 c 0,0.5842 0.2159,0.89747 0.6985,0.89747 z"
       style="font-style:normal;font-variant:normal;font-weight:normal;font-stretch:normal;font-size:4.23333311px;font-family:'Noto Sans CJK JP';-inkscape-font-specification:'Noto Sans CJK JP';stroke-width:0.26458332"
       id="path1239" />
    <path
       inkscape:connector-curvature="0"
       d="m 55.968872,135.71043 h 0.3937 v -2.77283 h 0.9398 v -0.33444 h -2.2733 v 0.33444 h 0.9398 z"
       style="font-style:normal;font-variant:normal;font-weight:normal;font-stretch:normal;font-size:4.23333311px;font-family:'Noto Sans CJK JP';-inkscape-font-specification:'Noto Sans CJK JP';stroke-width:0.26458332"
       id="path1241" />
    <path
       inkscape:connector-curvature="0"
       d="m 58.009329,135.76546 c 0.283633,0 0.541867,-0.14816 0.762,-0.3302 h 0.0127 l 0.03387,0.27517 h 0.3175 v -1.41393 c 0,-0.56727 -0.237067,-0.94404 -0.795867,-0.94404 -0.3683,0 -0.694267,0.1651 -0.905933,0.30057 l 0.1524,0.2667 c 0.182033,-0.12277 0.423333,-0.24553 0.690033,-0.24553 0.376767,0 0.474133,0.28363 0.474133,0.57996 -0.9779,0.11007 -1.413933,0.35984 -1.413933,0.85937 0,0.41487 0.287867,0.65193 0.6731,0.65193 z m 0.110067,-0.30903 c -0.2286,0 -0.4064,-0.10583 -0.4064,-0.3683 0,-0.29633 0.262466,-0.48683 1.037166,-0.57997 v 0.64347 c -0.224366,0.19897 -0.4064,0.3048 -0.630766,0.3048 z"
       style="font-style:normal;font-variant:normal;font-weight:normal;font-stretch:normal;font-size:4.23333311px;font-family:'Noto Sans CJK JP';-inkscape-font-specification:'Noto Sans CJK JP';stroke-width:0.26458332"
       id="path1243" />
    <path
       inkscape:connector-curvature="0"
       d="m 59.867759,135.71043 h 0.385233 v -1.66793 c 0.232833,-0.23284 0.3937,-0.35137 0.630767,-0.35137 0.3048,0 0.436033,0.18203 0.436033,0.61383 v 1.40547 h 0.385233 v -1.45627 c 0,-0.58843 -0.220133,-0.9017 -0.702733,-0.9017 -0.313267,0 -0.550333,0.17357 -0.770467,0.38947 h -0.0127 l -0.03387,-0.3302 h -0.3175 z"
       style="font-style:normal;font-variant:normal;font-weight:normal;font-stretch:normal;font-size:4.23333311px;font-family:'Noto Sans CJK JP';-inkscape-font-specification:'Noto Sans CJK JP';stroke-width:0.26458332"
       id="path1245" />
    <path
       inkscape:connector-curvature="0"
       d="m 62.983484,135.76546 c 0.283633,0 0.541867,-0.14816 0.762,-0.3302 h 0.0127 l 0.03387,0.27517 h 0.3175 v -1.41393 c 0,-0.56727 -0.237067,-0.94404 -0.795867,-0.94404 -0.3683,0 -0.694267,0.1651 -0.905933,0.30057 l 0.1524,0.2667 c 0.182033,-0.12277 0.423333,-0.24553 0.690033,-0.24553 0.376767,0 0.474133,0.28363 0.474133,0.57996 -0.9779,0.11007 -1.413933,0.35984 -1.413933,0.85937 0,0.41487 0.287867,0.65193 0.6731,0.65193 z m 0.110067,-0.30903 c -0.2286,0 -0.4064,-0.10583 -0.4064,-0.3683 0,-0.29633 0.262466,-0.48683 1.037166,-0.57997 v 0.64347 c -0.224366,0.19897 -0.4064,0.3048 -0.630766,0.3048 z"
       style="font-style:normal;font-variant:normal;font-weight:normal;font-stretch:normal;font-size:4.23333311px;font-family:'Noto Sans CJK JP';-inkscape-font-specification:'Noto Sans CJK JP';stroke-width:0.26458332"
       id="path1247" />
    <path
       inkscape:connector-curvature="0"
       d="m 64.841914,135.71043 h 0.381 v -0.60537 l 0.4318,-0.50376 0.6731,1.10913 h 0.419099 l -0.867833,-1.3716 0.766233,-0.9271 h -0.431799 l -0.9779,1.21497 h -0.0127 v -2.286 h -0.381 z"
       style="font-style:normal;font-variant:normal;font-weight:normal;font-stretch:normal;font-size:4.23333311px;font-family:'Noto Sans CJK JP';-inkscape-font-specification:'Noto Sans CJK JP';stroke-width:0.26458332"
       id="path1249" />
    <path
       inkscape:connector-curvature="0"
       d="m 67.6613,135.76546 c 0.283633,0 0.541866,-0.14816 0.761999,-0.3302 h 0.0127 l 0.03387,0.27517 h 0.3175 v -1.41393 c 0,-0.56727 -0.237067,-0.94404 -0.795866,-0.94404 -0.3683,0 -0.694267,0.1651 -0.905934,0.30057 l 0.1524,0.2667 C 67.42,133.79696 67.6613,133.6742 67.928,133.6742 c 0.376766,0 0.474133,0.28363 0.474133,0.57996 -0.9779,0.11007 -1.413933,0.35984 -1.413933,0.85937 0,0.41487 0.287866,0.65193 0.6731,0.65193 z m 0.110066,-0.30903 c -0.2286,0 -0.4064,-0.10583 -0.4064,-0.3683 0,-0.29633 0.262467,-0.48683 1.037167,-0.57997 v 0.64347 c -0.224367,0.19897 -0.4064,0.3048 -0.630767,0.3048 z"
       style="font-style:normal;font-variant:normal;font-weight:normal;font-stretch:normal;font-size:4.23333311px;font-family:'Noto Sans CJK JP';-inkscape-font-specification:'Noto Sans CJK JP';stroke-width:0.26458332"
       id="path1251" />
  </g>
  <g
     aria-label="Kentarou Sato"
     style="font-size:3.52777767px;line-height:1.25;font-family:BokutachinoGothic;-inkscape-font-specification:BokutachinoGothic;letter-spacing:0px;word-spacing:0px;stroke-width:0.26458332"
     id="text1153-1"
     transform="translate(-17.006059,-56.064958)">
    <path
       inkscape:connector-curvature="0"
       d="m 22.173217,130.41876 h 0.3937 v -0.98213 l 0.5334,-0.635 0.931333,1.61713 h 0.436034 l -1.121834,-1.92193 0.969434,-1.18533 h -0.440267 l -1.2954,1.5621 h -0.0127 v -1.5621 h -0.3937 z"
       style="font-style:normal;font-variant:normal;font-weight:normal;font-stretch:normal;font-size:4.23333311px;font-family:'Noto Sans CJK JP';-inkscape-font-specification:'Noto Sans CJK JP';stroke-width:0.26458332"
       id="path1212" />
    <path
       inkscape:connector-curvature="0"
       d="m 25.767311,130.4738 c 0.313266,0 0.5588,-0.10584 0.762,-0.23707 l -0.1397,-0.254 c -0.169334,0.1143 -0.351367,0.18203 -0.575734,0.18203 -0.436033,0 -0.7366,-0.31326 -0.762,-0.80433 h 1.5494 c 0.0085,-0.055 0.01693,-0.13547 0.01693,-0.22013 0,-0.65617 -0.3302,-1.0795 -0.9144,-1.0795 -0.5334,0 -1.037167,0.46566 -1.037167,1.21073 0,0.75777 0.491067,1.20227 1.100667,1.20227 z m -0.719667,-1.39277 c 0.04657,-0.44873 0.334433,-0.7112 0.6604,-0.7112 0.359833,0 0.5715,0.24977 0.5715,0.7112 z"
       style="font-style:normal;font-variant:normal;font-weight:normal;font-stretch:normal;font-size:4.23333311px;font-family:'Noto Sans CJK JP';-inkscape-font-specification:'Noto Sans CJK JP';stroke-width:0.26458332"
       id="path1214" />
    <path
       inkscape:connector-curvature="0"
       d="m 27.185473,130.41876 h 0.385233 v -1.66793 c 0.232833,-0.23283 0.3937,-0.35137 0.630767,-0.35137 0.3048,0 0.436033,0.18204 0.436033,0.61384 v 1.40546 h 0.385233 v -1.45626 c 0,-0.58844 -0.220133,-0.9017 -0.702733,-0.9017 -0.313267,0 -0.550333,0.17356 -0.770467,0.38946 h -0.0127 l -0.03387,-0.3302 h -0.3175 z"
       style="font-style:normal;font-variant:normal;font-weight:normal;font-stretch:normal;font-size:4.23333311px;font-family:'Noto Sans CJK JP';-inkscape-font-specification:'Noto Sans CJK JP';stroke-width:0.26458332"
       id="path1216" />
    <path
       inkscape:connector-curvature="0"
       d="m 30.495932,130.4738 c 0.1397,0 0.2921,-0.0423 0.423333,-0.0847 l -0.0762,-0.28787 c -0.0762,0.0296 -0.182033,0.0593 -0.262467,0.0593 -0.2667,0 -0.3556,-0.16087 -0.3556,-0.4445 v -1.2827 h 0.6223 v -0.31327 h -0.6223 v -0.6477 h -0.321733 l -0.04657,0.6477 -0.359833,0.0212 v 0.2921 h 0.3429 v 1.27423 c 0,0.4572 0.1651,0.76624 0.656167,0.76624 z"
       style="font-style:normal;font-variant:normal;font-weight:normal;font-stretch:normal;font-size:4.23333311px;font-family:'Noto Sans CJK JP';-inkscape-font-specification:'Noto Sans CJK JP';stroke-width:0.26458332"
       id="path1218" />
    <path
       inkscape:connector-curvature="0"
       d="m 31.79556,130.4738 c 0.283633,0 0.541866,-0.14817 0.762,-0.3302 h 0.0127 l 0.03387,0.27516 h 0.3175 v -1.41393 c 0,-0.56727 -0.237066,-0.94403 -0.795866,-0.94403 -0.3683,0 -0.694267,0.1651 -0.905934,0.30056 l 0.1524,0.2667 c 0.182034,-0.12276 0.423334,-0.24553 0.690034,-0.24553 0.376766,0 0.474133,0.28363 0.474133,0.57997 -0.9779,0.11006 -1.413933,0.35983 -1.413933,0.85936 0,0.41487 0.287866,0.65194 0.6731,0.65194 z m 0.110066,-0.30904 c -0.2286,0 -0.4064,-0.10583 -0.4064,-0.3683 0,-0.29633 0.262467,-0.48683 1.037167,-0.57996 v 0.64346 c -0.224367,0.19897 -0.4064,0.3048 -0.630767,0.3048 z"
       style="font-style:normal;font-variant:normal;font-weight:normal;font-stretch:normal;font-size:4.23333311px;font-family:'Noto Sans CJK JP';-inkscape-font-specification:'Noto Sans CJK JP';stroke-width:0.26458332"
       id="path1220" />
    <path
       inkscape:connector-curvature="0"
       d="m 33.653989,130.41876 h 0.385234 v -1.47743 c 0.1524,-0.3937 0.389466,-0.52917 0.579966,-0.52917 0.09313,0 0.148167,0.008 0.224367,0.0381 l 0.07197,-0.33866 c -0.07197,-0.0381 -0.143933,-0.0508 -0.245533,-0.0508 -0.258233,0 -0.491066,0.18626 -0.651933,0.47836 h -0.0127 l -0.03387,-0.4191 h -0.3175 z"
       style="font-style:normal;font-variant:normal;font-weight:normal;font-stretch:normal;font-size:4.23333311px;font-family:'Noto Sans CJK JP';-inkscape-font-specification:'Noto Sans CJK JP';stroke-width:0.26458332"
       id="path1222" />
    <path
       inkscape:connector-curvature="0"
       d="m 36.143176,130.4738 c 0.563034,0 1.0668,-0.44027 1.0668,-1.20227 0,-0.76623 -0.503766,-1.21073 -1.0668,-1.21073 -0.563033,0 -1.0668,0.4445 -1.0668,1.21073 0,0.762 0.503767,1.20227 1.0668,1.20227 z m 0,-0.32174 c -0.397933,0 -0.664633,-0.35136 -0.664633,-0.88053 0,-0.52917 0.2667,-0.889 0.664633,-0.889 0.397934,0 0.668867,0.35983 0.668867,0.889 0,0.52917 -0.270933,0.88053 -0.668867,0.88053 z"
       style="font-style:normal;font-variant:normal;font-weight:normal;font-stretch:normal;font-size:4.23333311px;font-family:'Noto Sans CJK JP';-inkscape-font-specification:'Noto Sans CJK JP';stroke-width:0.26458332"
       id="path1224" />
    <path
       inkscape:connector-curvature="0"
       d="m 38.484205,130.4738 c 0.3175,0 0.5461,-0.1651 0.762,-0.41487 h 0.0127 l 0.02963,0.35983 h 0.321734 v -2.2987 h -0.385234 v 1.62984 c -0.220133,0.27516 -0.385233,0.38946 -0.6223,0.38946 -0.3048,0 -0.4318,-0.18203 -0.4318,-0.6096 v -1.4097 h -0.385233 v 1.45627 c 0,0.5842 0.2159,0.89747 0.6985,0.89747 z"
       style="font-style:normal;font-variant:normal;font-weight:normal;font-stretch:normal;font-size:4.23333311px;font-family:'Noto Sans CJK JP';-inkscape-font-specification:'Noto Sans CJK JP';stroke-width:0.26458332"
       id="path1226" />
    <path
       inkscape:connector-curvature="0"
       d="m 23.036817,135.76546 c 0.6477,0 1.0541,-0.38946 1.0541,-0.88053 0,-0.46143 -0.2794,-0.6731 -0.639233,-0.82973 l -0.4445,-0.1905 c -0.2413,-0.1016 -0.512234,-0.2159 -0.512234,-0.51647 0,-0.2794 0.2286,-0.4572 0.579967,-0.4572 0.287867,0 0.516467,0.1143 0.706967,0.2921 l 0.207433,-0.24977 c -0.220133,-0.2286 -0.5461,-0.38523 -0.9144,-0.38523 -0.563033,0 -0.9779,0.34713 -0.9779,0.8255 0,0.45297 0.3429,0.6731 0.630767,0.79587 l 0.448733,0.19473 c 0.2921,0.13123 0.516467,0.23283 0.516467,0.55033 0,0.3048 -0.245534,0.508 -0.651934,0.508 -0.321733,0 -0.635,-0.1524 -0.855133,-0.38523 l -0.237067,0.2667 c 0.270934,0.28363 0.6477,0.46143 1.087967,0.46143 z"
       style="font-style:normal;font-variant:normal;font-weight:normal;font-stretch:normal;font-size:4.23333311px;font-family:'Noto Sans CJK JP';-inkscape-font-specification:'Noto Sans CJK JP';stroke-width:0.26458332"
       id="path1228" />
    <path
       inkscape:connector-curvature="0"
       d="m 25.195809,135.76546 c 0.283634,0 0.541867,-0.14816 0.762,-0.3302 h 0.0127 l 0.03387,0.27517 h 0.3175 v -1.41393 c 0,-0.56727 -0.237067,-0.94404 -0.795867,-0.94404 -0.3683,0 -0.694266,0.1651 -0.905933,0.30057 l 0.1524,0.2667 c 0.182033,-0.12277 0.423333,-0.24553 0.690033,-0.24553 0.376767,0 0.474133,0.28363 0.474133,0.57996 -0.977899,0.11007 -1.413933,0.35984 -1.413933,0.85937 0,0.41487 0.287867,0.65193 0.6731,0.65193 z m 0.110067,-0.30903 c -0.2286,0 -0.4064,-0.10583 -0.4064,-0.3683 0,-0.29633 0.262467,-0.48683 1.037166,-0.57997 v 0.64347 c -0.224366,0.19897 -0.406399,0.3048 -0.630766,0.3048 z"
       style="font-style:normal;font-variant:normal;font-weight:normal;font-stretch:normal;font-size:4.23333311px;font-family:'Noto Sans CJK JP';-inkscape-font-specification:'Noto Sans CJK JP';stroke-width:0.26458332"
       id="path1230" />
    <path
       inkscape:connector-curvature="0"
       d="m 27.714633,135.76546 c 0.1397,0 0.2921,-0.0423 0.423334,-0.0847 l -0.0762,-0.28787 c -0.0762,0.0296 -0.182034,0.0593 -0.262467,0.0593 -0.2667,0 -0.3556,-0.16087 -0.3556,-0.4445 v -1.2827 h 0.6223 v -0.31327 h -0.6223 v -0.6477 h -0.321733 l -0.04657,0.6477 -0.359833,0.0212 v 0.2921 h 0.3429 v 1.27423 c 0,0.4572 0.1651,0.76623 0.656166,0.76623 z"
       style="font-style:normal;font-variant:normal;font-weight:normal;font-stretch:normal;font-size:4.23333311px;font-family:'Noto Sans CJK JP';-inkscape-font-specification:'Noto Sans CJK JP';stroke-width:0.26458332"
       id="path1232" />
    <path
       inkscape:connector-curvature="0"
       d="m 29.416423,135.76546 c 0.563033,0 1.0668,-0.44026 1.0668,-1.20226 0,-0.76624 -0.503767,-1.21074 -1.0668,-1.21074 -0.563033,0 -1.0668,0.4445 -1.0668,1.21074 0,0.762 0.503767,1.20226 1.0668,1.20226 z m 0,-0.32173 c -0.397933,0 -0.664633,-0.35137 -0.664633,-0.88053 0,-0.52917 0.2667,-0.889 0.664633,-0.889 0.397934,0 0.668867,0.35983 0.668867,0.889 0,0.52916 -0.270933,0.88053 -0.668867,0.88053 z"
       style="font-style:normal;font-variant:normal;font-weight:normal;font-stretch:normal;font-size:4.23333311px;font-family:'Noto Sans CJK JP';-inkscape-font-specification:'Noto Sans CJK JP';stroke-width:0.26458332"
       id="path1234" />
  </g>
</svg>
